<?xml version="1.0" encoding="UTF-8"?>
<!-- Generator: Adobe Illustrator 12.0.1, SVG Export Plug-In  -->
<!DOCTYPE svg PUBLIC "-//W3C//DTD SVG 1.1//EN" "http://www.w3.org/Graphics/SVG/1.1/DTD/svg11.dtd" [
	<!ENTITY ns_flows "http://ns.adobe.com/Flows/1.0/">
	<!ENTITY ns_svg "http://www.w3.org/2000/svg">
	<!ENTITY ns_xlink "http://www.w3.org/1999/xlink">
]>
<svg version="1.1" xmlns="http://www.w3.org/2000/svg" xmlns:xlink="http://www.w3.org/1999/xlink" xmlns:a="http://ns.adobe.com/AdobeSVGViewerExtensions/3.0/" width="360" height="144" viewBox="0 0 360 144" enable-background="new 0 0 360 144" xml:space="preserve">
<defs>
</defs>
<g>
	<defs>
		<rect id="XMLID_1_" x="16.382" y="21.222" width="327.237" height="101.557"/>
	</defs>
	<clipPath id="XMLID_5_">
		<use xlink:href="#XMLID_1_"/>
	</clipPath>
	<path clip-path="url(#XMLID_5_)" fill-rule="evenodd" clip-rule="evenodd" fill="#010101" d="M131.363,73.772   c0-6.406-2.832-13.314-10.246-13.314c-4.038,0-9.277,2.756-9.277,11.256c0,5.744,2.796,13.197,10.441,13.197   C126.939,84.911,131.363,81.417,131.363,73.772 M135.245,72.567c0,6.404-3.96,11.334-9.392,12.965   c-0.078,0.193,0.076,0.35,0.31,0.584c1.979,1.9,5.551,5.084,8.656,6.092c1.437,0.467,2.716,0.543,3.61,0.543   c0.386,0,1.317-0.115,1.861-0.35c0.234,0.041,0.311,0.389,0.194,0.582c-1.242,0.701-2.988,1.01-4.346,1.01   c-1.786,0-4-0.387-6.29-1.436c-3.183-1.475-5.744-3.727-7.181-5.123c-1.163-1.164-1.514-1.242-2.6-1.438   c-1.01-0.152-2.408-0.426-3.804-0.932c-5.164-1.977-8.309-6.557-8.309-12.109c0-7.762,5.824-13.701,13.818-13.701   C130.743,59.255,135.245,65.736,135.245,72.567"/>
	<path clip-path="url(#XMLID_5_)" fill-rule="evenodd" clip-rule="evenodd" fill="#010101" d="M150.536,85.921v-2.719   c-1.476,1.67-3.688,2.719-5.939,2.719c-4.074,0-4.969-1.98-4.969-4.814V70.474c0-0.778-0.466-0.973-2.29-1.01v-0.738h5.356v13.391   c0,1.98,1.708,2.484,3.494,2.484c2.912,0,4.348-2.059,4.386-4.773v-9.354c0-0.778-0.466-0.973-2.25-1.01v-0.738h5.318v13.236   c0,1.707,1.357,1.707,2.056,1.707v0.504L150.536,85.921z"/>
	<path clip-path="url(#XMLID_5_)" fill-rule="evenodd" clip-rule="evenodd" fill="#010101" d="M169.282,73.229   c-0.153-2.215-1.008-4.116-3.531-4.116c-2.522,0-3.765,1.979-4.502,4.116H169.282z M160.977,74.12   c-0.116,0.736-0.194,1.475-0.194,2.213c0,4.076,2.757,7.025,6.87,7.025c2.524,0,4.891-1.514,5.862-3.842l0.66,0.193   c-1.242,3.648-3.92,6.211-7.918,6.211c-5.24,0-8.424-3.572-8.424-8.813c0-4.658,3.493-8.81,8.306-8.81   c3.844,0,6.948,1.94,7.842,5.821H160.977z"/>
	<path clip-path="url(#XMLID_5_)" fill-rule="evenodd" clip-rule="evenodd" fill="#010101" d="M187.527,73.229   c-0.156-2.215-1.01-4.116-3.531-4.116c-2.525,0-3.768,1.979-4.505,4.116H187.527z M179.221,74.12   c-0.116,0.736-0.196,1.475-0.196,2.213c0,4.076,2.757,7.025,6.872,7.025c2.523,0,4.891-1.514,5.861-3.842l0.66,0.193   c-1.242,3.648-3.92,6.211-7.918,6.211c-5.241,0-8.423-3.572-8.423-8.813c0-4.658,3.491-8.81,8.306-8.81   c3.844,0,6.949,1.94,7.84,5.821H179.221z"/>
	<path clip-path="url(#XMLID_5_)" fill-rule="evenodd" clip-rule="evenodd" fill="#010101" d="M194.357,85.493v-0.738   c1.748-0.115,2.252-0.115,2.252-2.133v-9.627c0-1.477-0.541-2.059-1.902-2.445v-0.426c1.746-0.506,3.301-1.204,4.969-1.826v2.951   c1.592-1.631,2.834-2.951,5.277-2.951c2.797,0,5.668,2.213,5.668,5.123v9.201c0,2.018,1.049,2.018,2.369,2.133v0.738h-7.686v-0.738   c1.746-0.115,2.254-0.115,2.254-2.133v-8.541c0-2.445-1.361-4.075-3.885-4.075c-1.668,0-3.998,1.63-3.998,3.415v9.201   c0,2.018,0.504,2.018,2.174,2.133v0.738H194.357z"/>
	<path clip-path="url(#XMLID_5_)" fill-rule="evenodd" clip-rule="evenodd" fill="#010101" d="M215.125,80.099h0.467   c0.697,2.289,1.473,5.086,4.424,5.086c2.252,0,3.375-1.283,3.375-3.494c0-2.369-2.406-3.105-4.152-4.115   c-2.174-1.24-4.072-2.174-4.072-4.891c0-2.912,2.678-4.386,5.277-4.386c1.746,0,3.453,0.622,5.084,1.204v4.113h-0.621   c-0.465-2.328-2.018-4.58-4.619-4.58c-1.631,0-2.678,1.164-2.678,2.756c0,3.338,8.734,3.223,8.734,8.889   c0,3.531-3.066,5.24-6.25,5.24c-1.746,0-3.416-0.352-4.969-1.242V80.099z"/>
	<path clip-path="url(#XMLID_5_)" fill-rule="evenodd" clip-rule="evenodd" fill="#010101" d="M261.84,60.342   c0,1.008-0.775,2.019-1.863,2.019c-1.086,0-2.016-0.933-2.016-2.019c0-1.088,0.93-1.979,2.016-1.979   C260.986,58.362,261.84,59.37,261.84,60.342 M256.367,85.493v-0.738c1.748-0.115,2.252-0.115,2.252-2.133v-9.316   c0-0.816,0-1.902-0.699-2.369c-0.504-0.271-0.854-0.309-1.396-0.387v-0.388c1.668-0.698,3.416-1.398,5.162-2.056v14.516   c0,2.018,0.504,2.018,2.135,2.133v0.738H256.367z"/>
	<path clip-path="url(#XMLID_5_)" fill-rule="evenodd" clip-rule="evenodd" fill="#010101" d="M274.574,69.734   c-2.758,0-3.729,1.319-4.389,2.251v8.541c0,2.561,1.436,4.658,4.193,4.658c5.162,0,5.742-6.521,5.742-7.998   C280.121,73.694,278.727,69.734,274.574,69.734 M267.119,85.804V62.515c0-0.542,0-1.048-0.697-1.396   c-0.428-0.233-0.934-0.312-1.398-0.388v-0.271l5.162-2.097V70.55c1.943-1.476,3.65-2.251,6.094-2.251   c4.502,0,7.143,4.116,7.143,8.306c0,1.826-0.697,9.316-8.967,9.316c-2.057,0-3.998-0.504-5.938-1.203l-0.895,1.086H267.119z"/>
	<path clip-path="url(#XMLID_5_)" fill-rule="evenodd" clip-rule="evenodd" fill="#010101" d="M284.779,85.493v-0.738   c1.67-0.115,2.176-0.115,2.176-2.133v-9.82c0-1.514-0.428-1.592-1.787-2.252v-0.388c1.629-0.544,3.184-1.358,4.775-1.98v2.794   c0.971-1.124,2.213-2.947,3.881-2.947c1.127,0,2.057,0.582,2.057,1.783c0,0.854-0.66,1.477-1.475,1.477   c-0.621,0-1.281-0.66-2.291-0.66c-0.66,0-2.096,1.086-2.096,1.707v10.287c0,2.018,0.506,2.018,2.484,2.133v0.738H284.779z"/>
	<path clip-path="url(#XMLID_5_)" fill-rule="evenodd" clip-rule="evenodd" fill="#010101" d="M304.926,76.528   c-1.748,0.775-6.25,2.057-6.25,4.461c0,1.594,1.164,2.912,2.793,2.912c1.477,0,2.33-0.66,3.457-1.514V76.528z M304.926,71.442   c0-1.552-0.973-2.018-2.406-2.018c-1.398,0-3.416,0.854-3.416,1.861c0,0.234,0.037,0.467,0.037,0.854   c0,1.477-0.309,2.525-1.979,2.525c-0.699,0-1.164-0.699-1.164-1.32c0-0.855,0.582-1.67,1.398-2.369   c1.744-1.473,4.541-2.677,6.832-2.677c2.365,0,3.646,1.436,3.646,3.763v10.404c0,0.66,0,1.824,0.893,1.824   c0.619,0,0.973-0.816,1.088-1.32h0.619c-0.193,1.865-0.969,2.951-2.834,2.951c-1.436,0-2.637-1.32-2.678-2.68   c-1.824,1.359-3.064,2.68-5.471,2.68c-1.787,0-3.457-1.438-3.457-3.299c0-4.27,5.746-5.59,8.891-6.947V71.442z"/>
	<path clip-path="url(#XMLID_5_)" fill-rule="evenodd" clip-rule="evenodd" fill="#010101" d="M312.432,85.493v-0.738   c1.668-0.115,2.174-0.115,2.174-2.133v-9.82c0-1.514-0.428-1.592-1.785-2.252v-0.388c1.629-0.544,3.184-1.358,4.773-1.98v2.794   c0.973-1.124,2.215-2.947,3.883-2.947c1.125,0,2.057,0.582,2.057,1.783c0,0.854-0.658,1.477-1.475,1.477   c-0.621,0-1.281-0.66-2.291-0.66c-0.66,0-2.096,1.086-2.096,1.707v10.287c0,2.018,0.506,2.018,2.484,2.133v0.738H312.432z"/>
	<path clip-path="url(#XMLID_5_)" fill-rule="evenodd" clip-rule="evenodd" fill="#010101" d="M324.727,68.726h8.299l-0.076,0.738   c-0.779,0-2.873,0-2.986,1.086c-0.014,0.115,0.092,0.582,0.34,1.164l4.277,9.898l4.051-8.967c0.359-0.854,0.586-1.514,0.623-1.902   c0.137-1.279-1.613-1.241-2.619-1.279l0.078-0.738h6.561l-0.078,0.738c-1.863,0-2.438,0.66-3.201,2.367l-8.131,17.932   c-0.854,1.824-1.904,4.076-4.117,4.076c-0.854,0-1.398-0.738-1.314-1.553c0.102-0.932,0.709-1.553,1.645-1.59   c0.424,0.037,0.795,0.193,1.219,0.23c1.074,0.117,1.662-1.047,2.018-1.863l1.609-3.842l-6.088-13.74   c-0.793-1.668-0.391-1.707-2.186-2.018L324.727,68.726z"/>
	<path clip-path="url(#XMLID_5_)" fill-rule="evenodd" clip-rule="evenodd" fill="#010101" d="M112.766,101.772h9.592l0.468,3.305   h-0.468c-1.11-2.463-1.931-2.646-3.606-2.646h-2.38l-1.636,6.014h1.872c1.85,0.021,2.025-0.268,3.04-2.607h0.468l-1.248,5.992   h-0.506c0-2.42,0-2.543-1.93-2.584h-1.912l-1.442,5.252c-0.04,0.145-0.078,0.287-0.078,0.432c0,0.266,0.116,0.391,0.332,0.492   c0.408,0.164,2.748,0.186,3.334,0.186c2.708,0,3.645-0.186,5.38-3.367h0.469l-1.19,4.023h-12.302l0.176-0.656   c1.482-0.123,1.696-0.145,2.144-1.828l2.849-10.424c0.018-0.123,0.058-0.246,0.058-0.369c0-0.473-0.332-0.492-1.658-0.555   L112.766,101.772z"/>
	<path clip-path="url(#XMLID_5_)" fill-rule="evenodd" clip-rule="evenodd" fill="#010101" d="M124.609,109.347   c0.41-0.453,2.196-2.42,3.387-2.42c0.226,0,0.861,0.082,0.861,0.84c0,0.268-0.062,0.514-0.124,0.779   c-0.122,0.535-0.554,1.703-0.636,1.91c0.144-0.229,1.354-1.541,1.684-1.848c0.738-0.699,1.866-1.6,2.914-1.6   c0.473,0,1.17,0.266,1.17,1.043c0,0.432-0.206,0.926-0.533,1.686l-2.36,4.822c-0.063,0.102-0.102,0.205-0.102,0.328   c0,0.207,0.163,0.268,0.285,0.268c0.328,0,1.437-0.986,1.931-1.418l0.368,0.393c-0.738,0.674-2.482,2.318-3.652,2.318   c-0.309,0-0.78-0.145-0.78-0.699c0-0.184,0.042-0.369,0.103-0.535c0.144-0.41,0.288-0.717,0.943-2.092l1.643-3.365   c0.288-0.596,0.41-0.924,0.41-1.23c0-0.348-0.225-0.514-0.473-0.514c-0.286,0-0.574,0.166-0.922,0.453   c-2.422,1.906-4.105,5.396-5.296,7.797h-1.682c1.846-3.283,3.487-7.061,3.487-7.613c0-0.143-0.04-0.391-0.368-0.391   c-0.472,0-1.191,0.762-1.806,1.375L124.609,109.347z"/>
	<path clip-path="url(#XMLID_5_)" fill-rule="evenodd" clip-rule="evenodd" fill="#010101" d="M135.835,109.921   c0.41-0.615,0.882-1.313,1.642-2.033c0.761-0.715,1.354-0.982,1.807-0.982c0.39,0,0.718,0.246,0.718,0.799   c0,0.328-0.145,0.842-0.227,1.088c-0.082,0.33-0.615,1.725-0.758,2.053c0.204-0.309,1.168-1.744,1.374-2.01   c0.738-0.947,1.683-1.91,2.832-1.91c0.616,0,1.026,0.328,1.026,0.881c0,0.535-0.473,1.334-1.048,1.334   c-0.286,0-0.41-0.143-0.513-0.285c-0.206-0.268-0.328-0.41-0.636-0.41c-0.266,0-0.574,0.164-1.046,0.678   c-1.91,1.926-3.284,4.904-4.31,7.141h-1.765c1.21-2.113,2.318-4.309,3.099-6.607c0.082-0.246,0.327-1.006,0.327-1.23   c0-0.043,0-0.227-0.184-0.227c-0.432,0-1.356,1.293-1.888,2.01L135.835,109.921z"/>
	<path clip-path="url(#XMLID_5_)" fill-rule="evenodd" clip-rule="evenodd" fill="#010101" d="M149.05,102.964   c0-0.617,0.514-1.086,1.108-1.086c0.596,0,1.088,0.492,1.088,1.086c0,0.617-0.492,1.109-1.088,1.109   c-0.286,0-0.574-0.123-0.778-0.33C149.174,103.54,149.05,103.253,149.05,102.964 M145.726,114.642   c-0.02,0.104-0.062,0.184-0.062,0.287c0,0.08,0.042,0.164,0.186,0.164c0.368,0,1.519-1.109,1.929-1.52l0.39,0.393   c-1.784,1.701-2.832,2.523-3.672,2.523c-0.227,0-0.7-0.102-0.7-0.699c0-0.309,0.124-0.553,0.228-0.82l2.708-6.115   c0.04-0.104,0.103-0.244,0.103-0.369c0-0.205-0.185-0.229-0.227-0.229c-0.367,0-1.498,1.029-1.928,1.418l-0.39-0.389   c0.698-0.656,1.17-1.086,1.95-1.604c0.327-0.203,1.128-0.715,1.764-0.715c0.432,0,0.718,0.285,0.718,0.695   c0,0.268-0.122,0.537-0.204,0.76L145.726,114.642z"/>
	<path clip-path="url(#XMLID_5_)" fill-rule="evenodd" clip-rule="evenodd" fill="#010101" d="M155.741,114.21   c-0.883,1.004-2.072,2.299-3.53,2.299c-1.17,0-2.052-0.842-2.052-2.379c0-2.977,3.18-7.287,6.073-7.287   c1.334,0,1.95,0.945,1.95,1.602c0,0.432-0.246,0.82-0.76,0.82c-0.102,0-0.594,0-0.82-0.594c-0.082-0.186-0.102-0.393-0.184-0.576   c-0.063-0.164-0.248-0.574-0.76-0.574c-1.643,0-3.756,4.127-3.756,6.383c0,1.025,0.432,1.664,1.067,1.664   c0.84,0,1.786-0.986,2.4-1.686L155.741,114.21z"/>
	<path clip-path="url(#XMLID_5_)" fill-rule="evenodd" clip-rule="evenodd" fill="#010101" d="M162.328,109.347   c0.309-0.287,0.636-0.596,0.964-0.863c0.513-0.41,1.95-1.475,3.16-1.475c0.72,0,1.294,0.387,1.294,1.209   c0,0.512-0.226,1.047-0.41,1.52l-1.949,4.494c-0.082,0.205-0.206,0.492-0.206,0.635c0,0.063,0.042,0.289,0.287,0.289   c0.37,0,1.437-0.986,1.908-1.436l0.37,0.41c-0.8,0.758-2.483,2.318-3.674,2.318c-0.616,0-0.738-0.43-0.738-0.699   c0-0.307,0.164-0.76,0.328-1.148l2.092-4.924c0.206-0.537,0.309-0.783,0.309-0.986c0-0.41-0.286-0.596-0.676-0.596   c-0.738,0-1.868,0.799-2.606,1.477c-0.884,0.885-1.354,1.787-1.93,2.938l-1.725,3.754h-1.744c0.719-1.252,0.843-1.52,1.437-2.791   l4.29-9.275c0.204-0.43,0.78-1.662,0.78-1.951c0-0.328-0.248-0.43-0.597-0.43c-0.616,0-0.882,0.02-1.6,0.082l0.288-0.615   c0.328-0.02,3.569-0.227,3.693-0.227c0.103,0,0.286,0,0.286,0.186c0,0.268-0.964,2.338-1.17,2.811L162.328,109.347z"/>
	<path clip-path="url(#XMLID_5_)" fill-rule="evenodd" clip-rule="evenodd" fill="#010101" d="M176.416,110.7   c0.39-1.088,0.78-2.092,1.456-2.934c0.616-0.717,1.008-0.822,1.254-0.822c1.499,0,1.6,5.357,1.6,6.834   c0,0.781-0.021,1.541-0.039,2.318c0.102-0.162,0.203-0.309,0.307-0.473c0.225-0.305,0.389-0.633,0.575-0.941   c1.313-2.277,2.111-3.797,2.111-5.316c0-0.141-0.039-0.9-0.039-1.066c0-1.109,0.658-1.375,0.984-1.375   c0.389,0,0.717,0.287,0.717,0.863c0,0.758-0.879,3.283-3.713,7.941c-2.115,3.447-3.898,6.383-6.219,6.383   c-0.862,0-1.396-0.471-1.396-1.006c0-0.369,0.309-0.902,0.927-0.902c0.162,0,0.367,0.041,0.613,0.143   c0.206,0.102,0.391,0.246,0.597,0.309c0.122,0.039,0.286,0.082,0.472,0.082c0.882,0,2.708-1.09,2.708-5.07   c0-2.277-0.184-4.639-0.37-5.93c-0.08-0.432-0.164-1.066-0.614-1.066c-0.554,0-1.048,1.23-1.416,2.193L176.416,110.7z"/>
	<path clip-path="url(#XMLID_5_)" fill-rule="evenodd" clip-rule="evenodd" fill="#010101" d="M187.643,114.765   c0,0.576,0.186,1.127,0.779,1.127c0.658,0,1.232-0.574,1.561-0.941c0.982-1.068,2.832-4.373,2.832-6.385   c0-0.861-0.371-1.17-0.801-1.148C190.371,107.499,187.643,112.343,187.643,114.765 M194.066,109.47   c0,2.895-2.484,7.039-5.295,7.039c-1.418,0-2.34-1.168-2.34-2.811c0-2.752,2.461-6.854,5.336-6.877   C193.285,106.821,194.066,107.972,194.066,109.47"/>
	<path clip-path="url(#XMLID_5_)" fill-rule="evenodd" clip-rule="evenodd" fill="#010101" d="M195.91,109.245   c0.615-0.574,2.443-2.299,3.715-2.299c0.08,0,0.719,0,0.719,0.654c0,0.475-0.371,1.234-0.615,1.766l-1.91,3.881   c-0.41,0.842-0.615,1.271-0.615,1.58c0,0.246,0.164,0.553,0.594,0.553c0.328,0,0.924-0.205,1.744-1.066   c1.744-1.807,3.184-4.904,4.271-7.184c0.613,0,0.818-0.02,1.641-0.205c-2.154,4.557-2.627,5.664-2.936,6.506   c-0.082,0.227-0.328,0.904-0.328,1.23c0,0.412,0.246,0.494,0.41,0.494c0.473,0,1.049-0.699,1.684-1.521l0.471,0.291   c-0.449,0.594-1.045,1.332-1.846,1.928c-0.822,0.574-1.436,0.656-1.623,0.656c-0.738,0-0.777-0.637-0.777-0.885   c0-0.656,0.326-1.639,0.555-2.275c-1.09,1.334-2.566,3.1-4.189,3.1c-0.492,0-1.373-0.207-1.373-1.191   c0-0.535,0.287-1.127,0.533-1.643l2.361-4.76c0.039-0.102,0.123-0.246,0.123-0.369c0-0.207-0.186-0.268-0.287-0.268   c-0.189,0-0.352,0.104-0.434,0.164c-0.367,0.246-1.006,0.82-1.498,1.252L195.91,109.245z"/>
	<path clip-path="url(#XMLID_5_)" fill-rule="evenodd" clip-rule="evenodd" fill="#010101" d="M207.096,109.921   c0.408-0.615,0.881-1.313,1.641-2.033c0.758-0.715,1.354-0.982,1.807-0.982c0.389,0,0.717,0.246,0.717,0.799   c0,0.328-0.143,0.842-0.227,1.088c-0.08,0.33-0.615,1.725-0.758,2.053c0.205-0.309,1.17-1.744,1.375-2.01   c0.738-0.947,1.684-1.91,2.83-1.91c0.617,0,1.025,0.328,1.025,0.881c0,0.535-0.469,1.334-1.043,1.334   c-0.291,0-0.41-0.143-0.514-0.285c-0.205-0.268-0.328-0.41-0.637-0.41c-0.268,0-0.574,0.164-1.045,0.678   c-1.91,1.926-3.285,4.904-4.311,7.141h-1.764c1.209-2.113,2.316-4.309,3.098-6.607c0.08-0.246,0.328-1.006,0.328-1.23   c0-0.043,0-0.227-0.186-0.227c-0.432,0-1.354,1.293-1.889,2.01L207.096,109.921z"/>
	<path clip-path="url(#XMLID_5_)" fill-rule="evenodd" clip-rule="evenodd" fill="#010101" d="M223.232,114.683   c-0.059,0.145-0.076,0.246-0.076,0.309c0,0.08,0.039,0.164,0.137,0.164c0.311,0,1.461-1.189,1.832-1.561l0.389,0.348   c-2.162,2.32-2.885,2.609-3.371,2.609c-0.254,0-0.701-0.145-0.701-0.74c0-0.287,0.096-0.574,0.389-1.334l4.326-11.533   c0.098-0.268,0.176-0.471,0.176-0.658c0-0.307-0.213-0.471-0.525-0.471c-0.332,0-1.111,0.082-1.58,0.121l0.273-0.633   c1.482-0.146,1.656-0.164,3.102-0.33c0.154,0,0.232-0.021,0.332-0.021c0.074,0,0.35,0,0.35,0.268c0,0.143-0.234,0.781-0.293,0.945   L223.232,114.683z"/>
	<path clip-path="url(#XMLID_5_)" fill-rule="evenodd" clip-rule="evenodd" fill="#010101" d="M232.461,102.964   c0-0.617,0.512-1.086,1.109-1.086c0.596,0,1.088,0.492,1.088,1.086c0,0.617-0.492,1.109-1.088,1.109   c-0.289,0-0.574-0.123-0.781-0.33C232.586,103.54,232.461,103.253,232.461,102.964 M229.137,114.642   c-0.021,0.104-0.061,0.184-0.061,0.287c0,0.08,0.039,0.164,0.184,0.164c0.369,0,1.52-1.109,1.93-1.52l0.389,0.393   c-1.785,1.701-2.832,2.523-3.67,2.523c-0.229,0-0.701-0.102-0.701-0.699c0-0.309,0.123-0.553,0.227-0.82l2.707-6.115   c0.043-0.104,0.105-0.244,0.105-0.369c0-0.205-0.186-0.229-0.225-0.229c-0.373,0-1.5,1.029-1.932,1.418l-0.389-0.389   c0.695-0.656,1.17-1.086,1.947-1.604c0.328-0.203,1.131-0.715,1.768-0.715c0.43,0,0.715,0.285,0.715,0.695   c0,0.268-0.121,0.537-0.201,0.76L229.137,114.642z"/>
	<path clip-path="url(#XMLID_5_)" fill-rule="evenodd" clip-rule="evenodd" fill="#010101" d="M236.605,107.214   c1.314-3.059,2.773-6.426,5.686-6.426c1.766,0,2.564,1.232,2.564,2.033c0,0.553-0.348,0.881-0.777,0.881   c-0.721,0-0.906-0.697-1.068-1.291c-0.082-0.309-0.268-1.025-1.068-1.025c-0.43,0-0.965,0.246-1.518,1.064   c-0.553,0.781-1.354,2.525-2.215,4.764h2.398l-0.184,0.654H238c-0.365,1.027-0.736,2.053-1.086,3.078   c-0.473,1.293-0.924,2.607-1.416,3.92c-1.025,2.813-2.668,7.307-5.828,7.307c-1.457,0-2.156-0.924-2.156-1.662   c0-0.615,0.494-0.922,0.863-0.922c0.514,0,0.658,0.307,0.943,0.965c0.125,0.285,0.391,0.818,0.986,0.818   c0.164,0,0.84,0,1.518-1.066c0.697-1.109,1.746-4.248,2.135-5.459c1.293-3.982,1.438-4.434,2.381-6.979h-2.012l0.184-0.654H236.605   z"/>
	<path clip-path="url(#XMLID_5_)" fill-rule="evenodd" clip-rule="evenodd" fill="#010101" d="M245.492,108.466   c0-0.414-0.266-0.803-0.719-0.803c-1.271,0-2.34,2.299-2.77,3.283C244.816,110.765,245.492,109.021,245.492,108.466    M245.145,113.983c-0.945,1.314-2.176,2.506-3.715,2.506c-1.643,0-1.973-1.293-1.973-2.176c0-2.627,3.123-7.367,5.973-7.367   c1.025,0,1.459,0.656,1.459,1.334c0,0.615-0.328,1.436-1.293,2.113c-1.316,0.902-2.936,1.047-3.818,1.129   c-0.285,0.74-0.637,1.662-0.637,2.709c0,0.758,0.289,1.25,0.965,1.25c0.986,0,2.033-1.127,2.646-1.783L245.145,113.983z"/>
	<path clip-path="url(#XMLID_5_)" fill-rule="evenodd" clip-rule="evenodd" fill="#010101" d="M233.916,85.495v-0.787   c2.059,0,2.957-0.186,2.957-2.096V62.549c0-1.908-1.35-2.094-2.883-2.094v-0.786h10.219v0.786c-2.547,0-3.555,0.636-3.555,2.47   v18.826c0,2.881,0.934,2.957,4.564,2.957c1.535,0,1.398,0,2.936-0.262c1.98-0.338,3.029-1.496,4.154-3.07   c0.971-1.346,1.869-2.77,2.693-4.23h0.785l-2.131,8.35H233.916z"/>
	<path clip-path="url(#XMLID_5_)" fill="#010101" d="M258.004,104.886c0-2.311-1.867-4.166-4.178-4.166   c-2.309,0-4.166,1.855-4.166,4.166c0,2.309,1.857,4.18,4.166,4.18C256.137,109.065,258.004,107.194,258.004,104.886    M257.314,104.886c0,1.924-1.563,3.488-3.488,3.488c-1.924,0-3.475-1.564-3.475-3.488s1.551-3.477,3.475-3.477   C255.752,101.409,257.314,102.962,257.314,104.886 M252.729,104.669v-1.346h1.166c0.477,0,0.805,0.26,0.805,0.668   c0,0.465-0.373,0.678-0.928,0.678H252.729z M252.004,107.194h0.725v-1.9h0.43c0.557,0,0.77,0.191,1.336,1.199l0.398,0.701h0.883   l-0.545-0.871c-0.371-0.6-0.656-0.984-1.041-1.119v-0.025c0.76-0.043,1.279-0.566,1.279-1.289c0-0.486-0.375-1.178-1.482-1.178   h-1.982V107.194z"/>
	<path clip-path="url(#XMLID_5_)" fill-rule="evenodd" clip-rule="evenodd" fill="#F17523" d="M37.88,98.413   c0,0-3.676-20.045-20.6-27.881l19.34-41.48c0,0,14.84,4.74,21.13,26.75L37.88,98.413z"/>
	<path clip-path="url(#XMLID_5_)" fill-rule="evenodd" clip-rule="evenodd" fill="#FFC42C" d="M76.537,99.536l-0.092,0.037   c-21.387,9.104-35.057,0.549-35.057,0.549l19.343-41.479c17.483,8.208,35.584-1.684,35.584-1.684l-19.87,42.613L76.537,99.536z"/>
	<path clip-path="url(#XMLID_5_)" fill-rule="evenodd" clip-rule="evenodd" fill="#FFC42C" d="M73.049,55.428l2.228-4.114   c15.822,2.152,28.175-3.466,28.175-3.466C88.799,56.577,73.049,55.428,73.049,55.428"/>
	<path clip-path="url(#XMLID_5_)" fill-rule="evenodd" clip-rule="evenodd" fill="#FFC42C" d="M83.181,47.608l2.228-4.114   c15.822,2.154,28.174-3.466,28.174-3.466C98.931,48.759,83.181,47.608,83.181,47.608"/>
	<path clip-path="url(#XMLID_5_)" fill-rule="evenodd" clip-rule="evenodd" fill="#FFC42C" d="M135.921,21.766   c-10.232,5.36-22.646,1.862-34.83,0.226c-19.24-2.584-37.238,7.335-40.02,32.929C79.867,15.138,115.013,39.996,135.921,21.766"/>
</g>
<rect id="_x3C_Slice_x3E__1_" fill="none" width="360" height="144"/>
</svg>